<svg xmlns="http://www.w3.org/2000/svg" width="21" height="21" viewBox="0 0 23.517 25.756">
  <g id="Group_17" data-name="Group 17" transform="translate(-544.549 -773.279)">
    <path id="Path_14" data-name="Path 14" d="M64.368,32.044a.461.461,0,0,0-.328.136L53.629,42.59a5.783,5.783,0,1,1-8.179-8.179L56.81,23.052a4,4,0,0,1,5.655,5.655l-10.1,10.1a2.213,2.213,0,1,1-3.13-3.13l6.942-6.942a.464.464,0,1,0-.656-.656l-6.942,6.942a3.141,3.141,0,1,0,4.443,4.443l10.1-10.1A4.926,4.926,0,1,0,56.153,22.4L44.794,33.755a6.711,6.711,0,0,0,9.491,9.491L64.7,32.836a.464.464,0,0,0-.328-.792Z" transform="translate(502.467 753.077)" fill="none" stroke="#cdcdcd" stroke-width="1.5"/>
  </g>
</svg>
